<svg xmlns="http://www.w3.org/2000/svg" width="12" height="12" viewBox="0 0 12 12"><g><radialGradient id="a" cx="6" cy="6" r="5.3" gradientUnits="userSpaceOnUse"><stop offset="0" stop-color="#8d3"/><stop offset="1" stop-color="#ADF651"/></radialGradient><path fill="url(#a)" d="M6 11.3C3.1 11.3.7 8.9.7 6S3.1.7 6 .7s5.3 2.4 5.3 5.3-2.4 5.3-5.3 5.3z"/><path fill="#656565" d="M6 1.4c2.5 0 4.6 2.1 4.6 4.6S8.5 10.6 6 10.6 1.4 8.5 1.4 6 3.5 1.4 6 1.4M6 0C2.7 0 0 2.7 0 6s2.7 6 6 6 6-2.7 6-6-2.7-6-6-6z"/></g></svg>