<svg xmlns="http://www.w3.org/2000/svg" viewBox="0 0 18 18" width="18" height="18"><path fill="#B3B3B4" d="M.8 12.5v-.2c0-.5-.1-2.1.2-2.5.3-.4.9-.7 1.6-1l.6-.3 1-.5v-.7c-.2-.1-.4-.4-.5-1-.3-.1-.4-.5-.5-.7 0 0 0-.6.2-.9h.1c0-.4-.1-.7 0-.9 0-.9.8-1.8 2-1.8s2 .9 2 1.8v.9h.1c.2.3.2.8.2.9 0 .2-.2.7-.5.8l-.4 1v.7c.1.1.4.2 1 .5l.6.3c.7.3 1.4.6 1.6 1v.1l.2 2.7H.8z"/><path fill="#fff" d="M5.5 2.3c1 0 1.7.8 1.8 1.5 0 .2 0 .6-.1 1 .2 0 .3.5.3.7 0 .2-.2.6-.4.6l-.5 1.2v.9s.2.1 1.1.5c.9.4 1.8.7 2.1 1.1l.2 2.4H1s-.1-2 .2-2.4c.3-.5 1.2-.7 2.1-1.1l1.1-.5v-.9S4.1 7 4 6.1c-.2 0-.4-.4-.4-.6 0-.2 0-.7.3-.7-.2-.4-.2-.8-.2-1 .1-.8.8-1.5 1.8-1.5m0-.5c-1.3 0-2.2 1-2.3 2v.8c-.2.3-.2.9-.2 1 0 .3.2.7.5.9.1.5.3.8.4 1v.4l-.9.4c-.1.1-.3.1-.5.2-.8.3-1.5.6-1.8 1.1-.3.5-.3 1.9-.2 2.6v.5h10v-.5l-.2-2.4v-.1l-.1-.1c-.3-.5-1-.8-1.7-1.1-.2-.1-.3-.1-.5-.2-.4-.2-.7-.3-.9-.4v-.5l.3-.8c.4-.3.6-.7.6-1 0-.1 0-.7-.3-1 0-.4.1-.6 0-.8 0-1-.9-2-2.2-2z"/><path fill="#99999A" d="M7.8 12.2V12c0-.5-.1-2.1.2-2.5.3-.4.9-.7 1.6-1l.6-.3 1-.5V7c-.1-.1-.3-.5-.4-1-.3-.1-.5-.5-.5-.8 0 0 0-.6.2-.9h.1c0-.4-.1-.7 0-.9.1-.9.9-1.8 2-1.8 1.2 0 2 .9 2 1.8v.9h.1c.2.3.2.8.2.9 0 .2-.2.7-.5.8L14 7v.7c.1.1.4.2 1 .5l.6.3c.7.3 1.4.6 1.6 1v.1l.2 2.7H7.8z"/><path fill="#fff" d="M12.5 2c1 0 1.7.8 1.8 1.5 0 .2 0 .6-.1 1 .2 0 .3.5.3.7 0 .2-.2.6-.4.6L13.6 7v.9s.2.1 1.1.5c.9.4 1.8.7 2.1 1.1L17 12H8s-.1-2 .2-2.4c.3-.5 1.2-.7 2.1-1.1l1.1-.5v-.9s-.3-.3-.4-1.2c-.2 0-.4-.4-.4-.6 0-.2 0-.7.3-.7-.1-.4-.1-.8-.1-1 0-.8.7-1.6 1.7-1.6m0-.5c-1.3 0-2.2 1-2.3 2v.8c-.2.3-.2.9-.2 1 0 .3.2.7.5.9.1.5.3.8.4 1v.4L10 8c-.1.1-.3.2-.5.3-.8.3-1.5.6-1.8 1.1-.2.4-.2 1.8-.2 2.6v.5h10V12l-.2-2.4v-.1l-.1-.1c-.3-.5-1-.8-1.7-1.1-.2-.1-.3-.2-.5-.3-.4-.2-.7-.3-.8-.4v-.5l.3-.8c.4-.2.6-.7.6-1 0-.1 0-.7-.3-1 0-.4.1-.6 0-.8-.1-1-1-2-2.3-2z"/><path fill="#707071" d="M3.8 16.2V16c0-.5-.1-2.1.2-2.5.3-.4 1-.7 1.8-1l.6-.3 1.1-.5V11c-.1-.1-.3-.5-.5-1-.3 0-.5-.5-.5-.7 0 0 0-.6.2-.9l.1-.1c0-.4-.1-.6 0-.8.1-.9 1-1.8 2.2-1.8 1.3 0 2.2.9 2.2 1.8 0 .2 0 .4-.1.9 0 0 .1 0 .1.1.2.3.2.8.2.9 0 .3-.2.7-.6.8l-.4 1v.7c.2.1.5.2 1.1.5.2.1.4.2.7.3.8.3 1.5.6 1.8 1v.1l.2 2.7H3.8z"/><path fill="#fff" d="M9 6c1.2 0 1.9.8 2 1.5 0 .2 0 .6-.1 1 .3 0 .3.5.3.7 0 .2-.2.6-.4.6h-.1l-.4 1.2v.9s.2.1 1.2.5 2 .7 2.3 1.1L14 16H4s-.1-2 .2-2.4c.3-.5 1.3-.7 2.3-1.1l1.2-.5v-.9s-.4-.3-.5-1.2h-.1c-.1-.1-.3-.4-.3-.6 0-.2 0-.7.3-.7C7 8.1 7 7.7 7 7.5c.1-.7.8-1.5 2-1.5m0-.5c-1.4 0-2.4 1-2.5 2v.8c-.3.3-.3 1-.3 1 0 .3.2.7.6.9.1.5.3.8.4 1v.4l-.9.4c-.2.1-.4.2-.6.2-.8.3-1.6.6-1.9 1.1-.3.5-.3 1.9-.3 2.7v.5h11V16l-.2-2.4v-.1l-.1-.1c-.3-.5-1-.8-1.9-1.1l-.6-.3c-.5-.2-.7-.3-.9-.4v-.5l.3-.8c.4-.2.6-.6.6-1 0-.1 0-.7-.3-1 0-.4.1-.6 0-.8 0-1-1-2-2.4-2z"/><path fill="none" d="M0 0h18v18H0z"/></svg>