<svg xmlns="http://www.w3.org/2000/svg" width="12" height="12" viewBox="0 0 12 12"><g><radialGradient id="a" cx="6.069" cy="5.739" r="5.603" gradientTransform="matrix(.891 0 0 .917 .591 .489)" gradientUnits="userSpaceOnUse"><stop offset="0" stop-color="#F7CF22"/><stop offset=".258" stop-color="#F9D71B"/><stop offset="1" stop-color="#FFEB0A"/></radialGradient><path d="M1.1 10.5c-.2 0-.3-.2-.4-.2-.1-.2-.1-.3 0-.5l4.9-8.7c.1-.1.3-.2.4-.2s.3 0 .4.2l4.9 8.7c.1.2.1.3 0 .5 0 .1-.2.2-.4.2H1.1z" fill="url(#a)"/><path d="M6 1.9l4.4 7.9H1.6L6 1.9M6 .2c-.4 0-.8.2-1 .6L.2 9.5c-.4.8.1 1.8 1 1.8h9.7c.9 0 1.4-1 1-1.8L7 .8C6.8.4 6.4.2 6 .2z" fill="#656565"/></g></svg>