<svg xmlns="http://www.w3.org/2000/svg" width="22" height="22" viewBox="0 0 22 22"><g><path d="M4.5 19.5c-1.65 0-2.99-1.34-2.99-2.99V5.5c-.01-1.66 1.33-3 2.99-3h13.01c1.65 0 3 1.34 3 3v11.01c0 1.65-1.34 3-2.99 3H4.5z" fill="#F2F2F0"/><path d="M17.51 3C18.88 3 20 4.12 20 5.5v11.01c0 1.37-1.12 2.49-2.49 2.49H4.5C3.12 19 2 17.88 2 16.51V5.5C2 4.12 3.12 3 4.5 3h13.01m0-1H4.5C2.57 2 1 3.57 1 5.5v11.01C1 18.43 2.57 20 4.5 20h13.01c1.92 0 3.49-1.57 3.49-3.49V5.5C21 3.57 19.43 2 17.51 2z" fill="#A0A0A0"/><path d="M11.5 12.83l1.87-.32c.34.53.58 1.12.72 1.76.35-.52.62-.88.8-1.09.24-.28.44-.46.59-.55.16-.08.32-.13.5-.13.2 0 .35.05.45.16s.16.25.16.44c0 .17-.05.31-.16.42-.1.11-.24.16-.39.16-.11 0-.25-.02-.39-.06-.15-.04-.25-.06-.31-.06-.15 0-.29.05-.43.16-.19.15-.41.46-.69.94.31 1.07.55 1.73.73 1.97.11.14.22.21.33.21.09 0 .17-.02.24-.07.1-.07.26-.26.48-.56l.19.11c-.31.51-.62.87-.92 1.07-.23.16-.45.24-.68.24-.23 0-.42-.05-.57-.15-.15-.1-.29-.27-.4-.5-.12-.23-.26-.6-.42-1.11-.42.53-.75.92-.98 1.17-.24.25-.44.41-.59.48s-.33.11-.5.11c-.19 0-.33-.05-.44-.16s-.19-.24-.19-.41c0-.18.06-.33.18-.45s.27-.18.45-.18c.1 0 .21.03.33.09.18.09.31.13.39.13.1 0 .2-.02.28-.06.11-.05.24-.17.41-.35.1-.11.28-.35.55-.71-.34-1.27-.61-2.04-.81-2.29-.12-.16-.28-.24-.46-.24-.1 0-.21.01-.35.04l.03-.21z" fill="#4E4E4F"/><path fill="none" d="M0 0h22v22H0z"/><path d="M10.78 8.64l-.96 2.98c-.45 1.41-.86 2.43-1.24 3.06-.38.63-.8 1.1-1.27 1.4-.47.3-.99.46-1.57.46-.36 0-.63-.07-.79-.21-.16-.14-.24-.3-.22-.49.01-.18.09-.33.24-.46s.34-.19.57-.19c.19 0 .34.05.43.15.1.1.14.22.13.38-.01.14-.05.24-.12.31-.07.07-.1.11-.1.13l.03.05c.03.02.05.03.09.03.13 0 .24-.04.34-.12.24-.2.43-.45.56-.74.09-.2.27-.72.55-1.57l2.21-5.15-1.79-.01.27-.75c.32 0 .92-.04 1.07-.12.15-.09.32-.28.5-.58.53-.87 1.07-1.5 1.62-1.88.55-.38 1.14-.57 1.78-.57.41 0 .7.08.88.24.18.16.25.37.24.62-.02.22-.09.4-.22.53s-.29.2-.48.2c-.17 0-.31-.05-.41-.16-.1-.11-.15-.24-.14-.39.01-.11.05-.22.13-.34.08-.12.12-.2.12-.24 0-.05-.01-.09-.04-.12s-.07-.05-.12-.05c-.25 0-.52.16-.81.47-.47.5-.88 1.3-1.22 2.39h1.29l-.28.76h-1.27z" fill="#404141"/></g></svg>