<svg xmlns="http://www.w3.org/2000/svg" viewBox="-34 66 70 70" enable-background="new -34 66 70 70"><g><path d="M27.5 103.4c4.7 1.4 3.9 4.8 3.9 7.1H19.7c-.4-1.4-1.5-2.7-3.9-3.4l-.8-.2c-3.3-1-5-1.5-5.5-2.5-.1-.4-.1-.8 1-1.2 3.5-1 5.3-1.6 5.7-2.9h.2l-.2-.2c-1.7-1.7-3.1-4.9-3.1-7.6 0-3.7 2.9-6.2 5.6-6.2 2.7 0 5.4 2.7 5.4 6.4 0 2.6-1.5 5.8-3.3 7.4.5 1.5 2.5 2 6.7 3.3z"/><path d="M19.5 119h-36.3c0-.4 0-.7-.1-1.2-.1-1.4-.2-2.9.2-4.3.5-1.6 1.8-3 4.7-3.8l1.1-.4C-5.7 107.8-3 107-2 105l.3-.5v-.6c-.1 0-.1-.1-.2-.2-.3-.3-.6-.6-.9-1-2-2.6-3.4-6.5-3.4-9.8 0-4.2 3.1-8.6 7.7-8.6 3.6 0 7.5 3.6 7.5 8.9 0 3.4-1.8 7.6-4.2 10.1l-.5.5-.3.3.1.4c.6 2.4 3.4 3.3 9.1 4.9l1.2.4c2.9.9 4.3 2.3 4.9 3.8.6 1.5.5 3.2.4 4.7-.2.2-.2.5-.2.7z"/><path d="M-25.1 103.4c-4.7 1.4-3.9 4.8-3.9 7.1h11.7c.4-1.4 1.5-2.7 3.9-3.4l.8-.2c3.3-1 5-1.5 5.5-2.5-.1-.4.1-1-1-1.2-3.5-1-5.3-1.6-5.7-2.9h-.2l.2-.2c1.7-1.7 3.1-4.9 3.1-7.6 0-3.7-2.9-6.2-5.6-6.2-2.7 0-5.4 2.7-5.4 6.4 0 2.6 1.5 5.8 3.3 7.4-.4 1.5-2.5 2-6.7 3.3z"/></g></svg>