<svg xmlns="http://www.w3.org/2000/svg" viewBox="0 0 33.917 33.917" enable-background="new 0 0 33.917 33.917"><g><path fill="#E0E0E0" d="M3 33c-1.103 0-2-.897-2-2V3c0-1.103.897-2 2-2h28c1.103 0 2 .897 2 2v28c0 1.103-.897 2-2 2H3z"/><path fill="#C0C0C0" d="M31 2c.542 0 1 .458 1 1v28c0 .542-.458 1-1 1H3c-.542 0-1-.458-1-1V3c0-.542.458-1 1-1h28m0-2H3C1.35 0 0 1.35 0 3v28c0 1.65 1.35 3 3 3h28c1.65 0 3-1.35 3-3V3c0-1.65-1.35-3-3-3z"/><path fill="none" stroke="#999" stroke-width="3" stroke-miterlimit="10" d="M23 9.5h4c.53 0 .5-.03.5.5v14c0 .875-.156 1.5-.5 1.5h-6"/><path fill="#999" d="M24.623 20.223L22.593 25l2.03 4.777L13.3 25z"/><path fill="none" stroke="#999" stroke-width="3" stroke-miterlimit="10" d="M11 25.5H8c-.53 0-1.5-.97-1.5-1.5V10c0-.875 1.156-.5 1.5-.5h5"/><path fill="#999" d="M9.377 13.777L11.407 9l-2.03-4.777L20.7 9z"/></g></svg>