<svg xmlns="http://www.w3.org/2000/svg" viewBox="0 0 34 34" enable-background="new 0 0 34 34"><g><path fill="none" stroke="#444" stroke-width="2" stroke-miterlimit="10" d="M14 30H4l-1-1.335v-24S2.97 4 4 4h8"/><path fill="#444" d="M9.64 6.776l1.322-3.11-1.32-3.11 7.373 3.11z"/><path fill="none" stroke="#444" stroke-width="2" stroke-miterlimit="10" d="M20 4h10c.97 0 1 .665 1 .665v24S31 30 30 30h-8"/><path fill="#444" d="M24.36 26.555l-1.322 3.11 1.32 3.11-7.373-3.11z"/><g stroke="#555"><path fill="#fff" fill-opacity=".9" d="M19.03 9.5h-8.4c-.625 0-1.13.17-1.13.795v12.553c0 .624.505 1.652 1.13 1.652h12.54c.623 0 1.33-1.03 1.33-1.652v-8.412L19.03 9.5z"/><path fill="#999" stroke-linejoin="round" d="M19.042 12.457c-.013 1.417.79 2.017 2.06 2.017l3.398-.038-5.47-5.27.012 3.29z"/></g><g fill="#327BCC"><path d="M11.033 19.504c.218.135.624.243.95.243.704 0 1.12-.414 1.12-1.026 0-.557-.357-.9-.882-1.26-.534-.332-1.257-.9-1.257-1.683 0-.918.703-1.902 1.763-1.902.416 0 .772.212.93.32l-.177.787c-.17-.108-.447-.287-.793-.287-.664 0-.97.55-.97.965 0 .603.346.837.98 1.252.8.513 1.157 1.07 1.157 1.747 0 1.044-.802 1.7-1.87 1.7-.457 0-.933-.134-1.12-.26l.17-.596zM18.672 21.124c-.505-.19-1.18-.477-1.535-.657-.108-.054-.197-.09-.247-.09-1.1 0-1.872-1-1.872-3.115 0-2.025.803-3.297 1.97-3.297 1.14 0 1.813 1.335 1.813 3.26 0 1.658-.425 2.567-1.138 2.873v.027c.445.18.9.315 1.297.44l-.288.56zm-.663-3.87c0-1.163-.23-2.64-1.08-2.64-.862 0-1.12 1.487-1.12 2.648-.01 1.188.248 2.503 1.13 2.503.84 0 1.07-1.314 1.07-2.512zM20.232 14.237h.763v5.483h1.87v.585h-2.633v-6.068z"/></g></g></svg>