<svg xmlns="http://www.w3.org/2000/svg" viewBox="0 0 34 34" enable-background="new 0 0 34 34"><g><path fill="#fff" fill-opacity=".9" d="M23.97 24H10.03C9.46 24 9 23.54 9 22.97V10.03C9 9.46 9.46 9 10.03 9h13.94c.57 0 1.03.46 1.03 1.03v12.94c0 .57-.46 1.03-1.03 1.03z"/><path fill="none" stroke="#444" stroke-width="2" stroke-miterlimit="10" d="M14 30H4l-1-1.333v-24S2.97 4 4 4h8"/><path fill="#444" d="M9.64 6.777l1.322-3.11-1.32-3.11 7.373 3.11z"/><g stroke="#555" stroke-miterlimit="10"><path fill="#808285" d="M9.5 9.72v12.894c0 .305.247.886.553.886H24.5 10.053c-.305 0-.553-.58-.553-.886V11.72c0-.306.247-.22.553-.22h13.895c.305 0 .553-.086.553.22v11.446V9.72c0-.306-.246-.22-.552-.22H10.053c-.306 0-.553-.086-.553.22z"/><path fill="none" d="M14.5 11v12M19.5 11v12M9 15.5h16M9 19.5h16"/><path fill="#808285" d="M9.5 10.5h14v1h-14z"/></g><path fill="#327BCC" d="M21 26v-3h-3v-3h3v-3h3v3h3v3h-3v3z"/><path fill="#fff" d="M24 18v3h3v2h-3v3h-2v-3h-3v-2h3v-3h2m1-1h-4v3h-3v4h3v3h4v-3h3v-4h-3v-3z"/><path fill="none" stroke="#444" stroke-width="2" stroke-miterlimit="10" d="M20 4h10c.97 0 1 .666 1 .666v24S31 30 30 30h-8"/><path fill="#444" d="M24.36 26.556l-1.322 3.11 1.32 3.11-7.373-3.11z"/></g></svg>