<svg xmlns="http://www.w3.org/2000/svg" viewBox="0 0 34 34" enable-background="new 0 0 34 34"><g><path fill="#fff" d="M27.75 30h-22c-1.65 0-3-1.35-3-3V6c0-1.65 1.35-3 3-3h22c1.65 0 3 1.35 3 3v21c0 1.65-1.35 3-3 3z"/><path fill="none" stroke="#444" stroke-width="2" stroke-miterlimit="10" d="M14 30H4l-1-1V5s-.03-1 1-1h8"/><path fill="#444" d="M9.64 7.11L10.963 4 9.642.89 17.014 4z"/><path fill="none" stroke="#444" stroke-width="2" stroke-miterlimit="10" d="M20 4h10c.97 0 1 1 1 1v24s0 1-1 1h-8"/><path fill="#444" d="M24.36 26.89L23.037 30l1.32 3.11L16.986 30z"/><g stroke="#555" stroke-miterlimit="10"><path fill="#808285" d="M9.5 10.053v12.895c0 .305.247.553.553.553H24.5 10.053c-.305 0-.553-.246-.553-.552V12.053c0-.305.247-.553.553-.553h13.895c.305 0 .553.247.553.553V23.5 10.053c0-.305-.246-.553-.552-.553H10.053c-.306 0-.553.247-.553.553z"/><path fill="none" d="M14.5 11v12M19.5 11v12M9 15.5h16M9 19.5h16"/><path fill="#808285" d="M10 10h14v1H10z"/></g><path fill="#327BCC" d="M21.25 25.75v-3h-3v-3.5h3v-3h3.5v3h3v3.5h-3v3z"/><path fill="#fff" d="M24 17v3h3v2h-3v3h-2v-3h-3v-2h3v-3h2m1.5-1.5h-5v3h-3v5h3v3h5v-3h3v-5h-3v-3z"/></g></svg>