<svg xmlns="http://www.w3.org/2000/svg" viewBox="0 0 34 34" enable-background="new 0 0 34 34"><path fill="none" d="M15.658 10.167l5.29 12.604"/><g><path fill="none" stroke="#444" stroke-width="2" stroke-miterlimit="10" d="M14 30H4l-1-1.333v-24S2.97 4 4 4h8"/><path fill="#444" d="M9.64 6.777l1.322-3.11-1.32-3.11 7.373 3.11z"/><path fill="none" stroke="#444" stroke-width="2" stroke-miterlimit="10" d="M20 4h10c.97 0 1 .666 1 .666v24S31 30 30 30h-8"/><path fill="#444" d="M24.36 26.556l-1.322 3.11 1.32 3.11-7.373-3.11z"/><g stroke="#555"><path fill="#fff" fill-opacity=".9" d="M19.03 9.5h-8.4c-.625 0-1.13.173-1.13.796V22.85c0 .622.505 1.65 1.13 1.65h12.54c.623 0 1.33-1.027 1.33-1.65v-8.413L19.03 9.5z"/><path fill="#999" stroke-linejoin="round" d="M19.042 12.458c-.013 1.417.79 2.017 2.06 2.017l3.398-.038-5.47-5.27.012 3.29z"/></g><path fill="#00A0E5" d="M13.5 23H12l4.39-11h1.028L22 23h-1.52l-1.285-3.24-2.1-.084-.488-1.726 1.892-.016-1.583-3.548L13.5 23z"/></g></svg>