<?xml version="1.0" encoding="utf-8"?>
<!DOCTYPE svg PUBLIC "-//W3C//DTD SVG 1.1//EN" "http://www.w3.org/Graphics/SVG/1.1/DTD/svg11.dtd">
<svg version="1.1" id="Layer_1" xmlns="http://www.w3.org/2000/svg" xmlns:xlink="http://www.w3.org/1999/xlink" x="0px" y="0px"
	 viewBox="0 0 100 100" enable-background="new 0 0 100 100" xml:space="preserve">
<g>
<path fill="#FFFFFF" d="M84.4,64.5c-3.9,6.3-15.4,11-29.6,11.9c-0.7,0-1.5,0.1-2.2,0.1c-0.1,0-0.3,0-0.4,0c-0.7,0-1.5,0-2.2,0
c0,0,0,0,0,0s0,0,0,0c-0.7,0-1.5,0-2.2,0c-0.1,0-0.3,0-0.4,0c-0.7,0-1.5-0.1-2.2-0.1C31,75.6,19.5,70.8,15.6,64.5
c-0.9-1.5-1.4-0.7-1.4,0c0,0.7,0,10.2,0,10.2c0,6.2,6.3,12.6,15.9,16.5l0,0c0,0,0.1,0,0.1,0c0.6,0.2,1.2,0.5,1.9,0.7
c0.1,0,0.3,0.1,0.4,0.1c0.7,0.2,1.4,0.5,2.1,0.7c0,0,0.1,0,0.1,0c0.7,0.2,1.4,0.4,2,0.5c0.2,0,0.3,0.1,0.5,0.1
c0.7,0.2,1.5,0.3,2.2,0.5c0,0,0.1,0,0.1,0c0.7,0.1,1.4,0.3,2.2,0.4c0.2,0,0.4,0.1,0.6,0.1c0.8,0.1,1.5,0.2,2.3,0.3c0,0,0.1,0,0.1,0
c0.8,0.1,1.5,0.1,2.3,0.2c0.2,0,0.4,0,0.6,0c0.8,0,1.6,0.1,2.4,0.1c0,0,0,0,0,0c0,0,0,0,0,0s0,0,0,0s0,0,0,0c0.8,0,1.6,0,2.4-0.1
c0.2,0,0.4,0,0.6,0c0.8,0,1.5-0.1,2.3-0.2c0,0,0.1,0,0.1,0c0.8-0.1,1.6-0.2,2.3-0.3c0.2,0,0.4-0.1,0.6-0.1c0.7-0.1,1.5-0.2,2.2-0.4
c0,0,0.1,0,0.1,0c0.8-0.1,1.5-0.3,2.2-0.5c0.2,0,0.3-0.1,0.5-0.1c0.7-0.2,1.4-0.4,2-0.5c0,0,0.1,0,0.1,0c0.7-0.2,1.4-0.4,2.1-0.7
c0.1,0,0.3-0.1,0.4-0.1c0.6-0.2,1.3-0.5,1.9-0.7c0,0,0.1,0,0.1,0l0,0c9.6-3.9,15.9-10.2,15.9-16.5c0,0,0-9.5,0-10.2
C85.8,63.8,85.3,63,84.4,64.5z"/>
<path fill="#FFFFFF" d="M85.7,17.8C84.8,10.7,69.2,5,50,5c0,0,0,0,0,0s0,0,0,0c-19.8,0-35.8,6-35.8,13.5v6.4
c0,7.9,16,14.3,35.8,14.3c0,0,0,0,0,0s0,0,0,0c19.2,0,34.8-6,35.7-13.5c0-0.2,0-0.5,0-0.7v-6.4C85.8,18.2,85.8,18,85.7,17.8z"/>
<path fill="#FFFFFF" d="M84.5,38.4c-3.4,4.9-12.7,8.7-24.5,10.1c-1.5,0.2-3.1,0.3-4.7,0.4c-0.1,0-0.1,0-0.2,0
c-0.8,0-1.5,0.1-2.3,0.1c-0.1,0-0.2,0-0.3,0c-0.8,0-1.6,0-2.4,0c0,0-0.1,0-0.1,0c-0.7,0-1.5,0-2.2,0c-0.1,0-0.3,0-0.4,0
c-0.8,0-1.5-0.1-2.2-0.1c-0.1,0-0.2,0-0.3,0c-1.6-0.1-3.1-0.2-4.6-0.4c-11.9-1.4-21.2-5.2-24.6-10.1c-0.9-1.3-1.3-0.6-1.3,0
c0,0.6,0,12,0,12c0,9,15.9,16.2,35.5,16.3l0.6,0c0,0,0,0,0,0c0.1,0,0.1,0,0.2,0l0.4,0l0,0c19.3-0.2,34.9-7.4,34.9-16.3
c0,0,0-11.5,0-12C85.8,37.8,85.3,37.1,84.5,38.4z"/>
</g>
</svg>